<svg width="14" height="14" viewBox="0 0 12 12" fill="none" xmlns="http://www.w3.org/2000/svg">
      <path
		d="M7.16028 9.53488C7.16028 9.83988 6.96026 10.2399 6.70526 10.3949L6.00027 10.8499C5.34527 11.2549 4.43527 10.7999 4.43527 9.98988V7.31488C4.43527 6.95988 4.23527 6.50488 4.03027 6.25488L2.11026 4.23488C1.85526 3.97988 1.65527 3.52988 1.65527 3.22488V2.06488C1.65527 1.45988 2.11028 1.00488 2.66528 1.00488H9.33527C9.89027 1.00488 10.3453 1.45988 10.3453 2.01488V3.12488C10.3453 3.52988 10.0903 4.03488 9.84027 4.28488"
		stroke="#4D67EB"
		stroke-miterlimit="10"
		stroke-linecap="round"
		stroke-linejoin="round"
	/>
      <path
		d="M8.03458 8.25957C8.91823 8.25957 9.63458 7.54323 9.63458 6.65958C9.63458 5.77592 8.91823 5.05957 8.03458 5.05957C7.15092 5.05957 6.43457 5.77592 6.43457 6.65958C6.43457 7.54323 7.15092 8.25957 8.03458 8.25957Z"
		stroke="#4D67EB"
		stroke-linecap="round"
		stroke-linejoin="round"
	/>
      <path
		d="M9.93457 8.55957L9.43457 8.05957"
		stroke="#4D67EB"
		stroke-linecap="round"
		stroke-linejoin="round"
	/>
    </svg>
