<svg width="16" height="16" viewBox="0 0 16 16" fill="none" xmlns="http://www.w3.org/2000/svg">
<path d="M6.66667 12.3337C6.66667 11.045 5.622 10.0003 4.33333 10.0003C3.04467 10.0003 2 11.045 2 12.3337C2 13.6223 3.04467 14.667 4.33333 14.667C5.622 14.667 6.66667 13.6223 6.66667 12.3337Z" stroke="white" stroke-linecap="round" stroke-linejoin="round"/>
<path d="M13.9997 12.3337C13.9997 11.045 12.955 10.0003 11.6663 10.0003C10.3777 10.0003 9.33301 11.045 9.33301 12.3337C9.33301 13.6223 10.3777 14.667 11.6663 14.667C12.955 14.667 13.9997 13.6223 13.9997 12.3337Z" stroke="white" stroke-linecap="round" stroke-linejoin="round"/>
<path d="M4 1.33339L10.6533 10.2334" stroke="white" stroke-linecap="round" stroke-linejoin="round"/>
<path d="M11.9803 1.33339L5.32031 10.2334" stroke="white" stroke-linecap="round" stroke-linejoin="round"/>
</svg>
