<svg width="16" height="16" viewBox="0 0 16 16" fill="none" xmlns="http://www.w3.org/2000/svg">
      <path d="M9.81969 1.33301H6.17969V4.23967H9.81969V1.33301Z" fill="#4D67EB" />
      <path
		d="M10.8203 1.33301V4.23967H14.5803C14.2403 2.40634 12.887 1.33967 10.8203 1.33301Z"
		fill="#4D67EB"
	/>
      <path
		d="M1.33301 5.24023V10.7936C1.33301 13.2202 2.77967 14.6669 5.20634 14.6669H10.793C13.2197 14.6669 14.6663 13.2202 14.6663 10.7936V5.24023H1.33301ZM9.62634 10.7869L8.23967 11.5869C7.94634 11.7536 7.65967 11.8402 7.39301 11.8402C7.19301 11.8402 7.01301 11.7936 6.84634 11.7002C6.45967 11.4802 6.24634 11.0269 6.24634 10.4402V8.84023C6.24634 8.25357 6.45967 7.80023 6.84634 7.58023C7.23301 7.35357 7.72634 7.39357 8.23967 7.69357L9.62634 8.49357C10.1397 8.7869 10.4197 9.20023 10.4197 9.6469C10.4197 10.0936 10.133 10.4869 9.62634 10.7869Z"
		fill="#4D67EB"
	/>
      <path
		d="M5.17992 1.33301C3.11326 1.33967 1.75992 2.40634 1.41992 4.23967H5.17992V1.33301Z"
		fill="#4D67EB"
	/>
    </svg>
